<svg width="175" height="173" fill="none" xmlns="http://www.w3.org/2000/svg"><path d="M87.5 172.94C39.252 172.94 0 134.15 0 86.47S39.252 0 87.5 0 175 38.79 175 86.47h-16.765c0-38.546-31.73-69.903-70.735-69.903-39.005 0-70.736 31.357-70.736 69.903 0 38.546 31.73 69.903 70.736 69.903v16.567z" fill="#719DD6" fill-opacity=".1"/><path d="M87.5 147.763c-34.2 0-62.023-27.496-62.023-61.293h16.765c0 24.664 20.3 44.726 45.258 44.726 24.957 0 45.258-20.062 45.258-44.726 0-24.663-20.301-44.725-45.258-44.725V25.187c34.199 0 62.014 27.495 62.014 61.283 0 33.797-27.824 61.293-62.014 61.293z" fill="#719DD6" fill-opacity=".1"/><path d="M87.5 122.925c-20.336 0-36.889-16.349-36.889-36.455 0-20.097 16.544-36.455 36.89-36.455 20.335 0 36.888 16.35 36.888 36.455h-16.764c0-10.963-9.03-19.888-20.125-19.888-11.094 0-20.124 8.925-20.124 19.888 0 10.964 9.03 19.888 20.124 19.888v16.567z" fill="#719DD6" fill-opacity=".1"/></svg>